<svg version="1.1" id="Layer_1" xmlns="http://www.w3.org/2000/svg" xmlns:xlink="http://www.w3.org/1999/xlink" x="0px" y="0px"
	 width="100%" viewBox="0 0 496 256" enable-background="new 0 0 496 256" xml:space="preserve">
<path fill="#FFFFFF" opacity="1.000000" stroke="none" 
	d="
M325.428467,257.000000 
	C330.630188,243.861664 336.265320,230.725433 341.884827,217.582535 
	C342.672821,215.739578 343.798615,214.622833 346.019287,214.714600 
	C348.360443,214.811340 349.022247,216.427979 349.746246,218.149643 
	C355.096069,230.871277 360.458069,243.587769 365.908112,256.652954 
	C364.285645,257.000000 362.571289,257.000000 360.315308,256.645294 
	C355.966614,245.635147 357.292114,247.582199 347.462830,247.329163 
	C345.809204,247.286591 344.153595,247.321365 342.498901,247.320999 
	C333.342987,247.319016 332.863861,247.722412 331.000000,257.000000 
	C329.285645,257.000000 327.571289,257.000000 325.428467,257.000000 
M340.211548,233.626953 
	C339.508240,236.432068 337.154022,238.788498 337.808136,242.427094 
	C342.989288,242.823334 348.035339,242.902344 353.610474,242.107803 
	C351.600891,235.057785 348.736969,228.803482 345.561066,221.795959 
	C343.632263,226.004028 342.049927,229.456192 340.211548,233.626953 
z"/>
<path fill="#FFFFFF" opacity="1.000000" stroke="none" 
	d="
M274.437500,257.000000 
	C272.656189,249.447739 269.583435,242.394485 267.671997,235.008926 
	C267.233337,233.313965 265.309906,230.962509 268.408173,230.038605 
	C271.104919,229.234436 271.590454,231.784454 272.237610,233.609207 
	C274.108948,238.885345 274.989899,244.499512 277.940125,250.594391 
	C280.082153,244.300217 281.888794,238.871841 283.789734,233.476715 
	C284.379883,231.801773 284.814056,229.854462 287.246124,229.814545 
	C289.686279,229.774490 290.159790,231.661331 290.773621,233.366776 
	C292.792297,238.975739 294.770020,244.599472 297.249451,251.587067 
	C298.746124,246.507645 299.593079,242.550217 301.095612,238.859711 
	C302.415253,235.618607 301.151031,230.251190 307.799225,229.788223 
	C306.670929,239.316864 302.478210,247.424500 301.035004,256.596741 
	C299.285645,257.000000 297.571289,257.000000 295.232910,256.694214 
	C291.820618,250.628922 290.606598,244.200241 286.984619,238.011917 
	C284.701843,244.704498 282.017151,250.573303 281.000000,257.000000 
	C278.958344,257.000000 276.916656,257.000000 274.437500,257.000000 
z"/>
<path fill="#FFFFFF" opacity="1.000000" stroke="none" 
	d="
M40.428463,257.000000 
	C41.365211,251.753922 40.486351,246.410614 40.644547,241.114944 
	C40.798519,235.960770 40.683430,230.798492 40.682644,225.639771 
	C40.680969,214.652664 40.679951,214.669571 51.912067,214.670380 
	C54.750996,214.670578 57.553493,214.728302 60.280872,215.686630 
	C65.606133,217.557800 68.666168,222.249146 68.003693,227.645615 
	C67.246704,233.811935 62.874634,237.715195 56.073322,238.296753 
	C46.023129,239.156097 46.021172,239.156113 46.012123,249.574081 
	C46.010242,251.737366 46.028843,253.900665 46.019005,256.531982 
	C44.285641,257.000000 42.571285,257.000000 40.428463,257.000000 
M52.333878,219.350601 
	C47.132420,218.475693 45.388618,220.914963 46.020203,225.806976 
	C46.231731,227.445374 46.095772,229.126358 46.167908,230.785736 
	C46.231781,232.254944 46.811310,233.479980 48.442322,233.543030 
	C51.740353,233.670517 55.092968,234.200150 58.264824,232.731812 
	C60.660221,231.622940 62.418346,230.026794 62.643715,227.181320 
	C62.883812,224.149857 61.371063,222.102539 58.949818,220.628098 
	C57.202953,219.564316 55.227406,219.256287 52.333878,219.350601 
z"/>
<path fill="#FFFFFF" opacity="1.000000" stroke="none" 
	d="
M140.416656,257.000000 
	C139.960556,243.692703 139.920364,230.385391 139.883804,217.078094 
	C139.881973,216.413101 139.877304,215.745102 139.933502,215.083557 
	C140.066895,213.513016 140.413986,211.996460 142.359482,211.884521 
	C144.683838,211.750778 145.079758,213.489258 145.092163,215.221756 
	C145.132660,220.876495 145.011307,226.532471 145.061020,232.187027 
	C145.082474,234.625732 144.613022,237.135223 145.713760,239.673233 
	C152.069107,237.622620 154.453247,228.310486 163.417297,230.082520 
	C161.203995,234.395187 157.409409,236.388138 154.436096,239.073700 
	C151.294739,241.911041 150.566772,243.924805 154.231430,246.926682 
	C157.683533,249.754440 160.643097,253.183472 163.909668,256.674011 
	C161.958328,257.000000 159.916672,257.000000 157.254913,256.722229 
	C153.317520,252.755066 149.781967,249.316376 145.000000,245.478775 
	C145.000000,250.160629 145.000000,253.580322 145.000000,257.000000 
	C143.611115,257.000000 142.222214,257.000000 140.416656,257.000000 
z"/>
<path fill="#FFFFFF" opacity="1.000000" stroke="none" 
	d="
M78.468399,257.000000 
	C73.265076,250.571716 70.868225,243.822556 75.094086,236.140640 
	C77.859665,231.113266 83.791801,228.099625 89.370018,228.916687 
	C95.335373,229.790421 99.530830,233.499451 100.972237,239.173706 
	C102.159225,243.846390 101.108414,245.306259 96.373184,245.365173 
	C91.708878,245.423218 87.043098,245.358246 82.378563,245.405792 
	C81.097198,245.418854 79.542831,245.020874 78.767342,246.467590 
	C77.930077,248.029510 78.939178,249.363998 79.735863,250.610062 
	C82.752235,255.327866 88.960182,256.223145 94.288834,252.781479 
	C95.722839,251.855286 96.993790,249.808624 99.024246,251.576904 
	C101.213341,253.483322 98.639160,254.765961 98.112152,256.667328 
	C91.645599,257.000000 85.291206,257.000000 78.468399,257.000000 
M80.797791,236.166962 
	C79.880127,237.419449 78.224327,238.404175 79.323097,240.568588 
	C83.644623,241.382401 88.079453,240.898331 92.491547,240.907791 
	C93.638710,240.910248 94.942528,240.890793 95.387489,239.541687 
	C95.793243,238.311432 95.020065,237.334564 94.261703,236.441071 
	C91.135155,232.757248 86.948730,232.517334 80.797791,236.166962 
z"/>
<path fill="#FFFFFF" opacity="1.000000" stroke="none" 
	d="
M186.428467,257.000000 
	C187.434479,247.064148 186.450058,237.074615 186.603653,227.112366 
	C186.795242,214.687134 186.651428,214.680954 198.929688,214.684555 
	C202.758698,214.685669 206.588226,214.683365 210.416458,214.746582 
	C211.853226,214.770294 213.080017,215.229401 213.054718,217.018753 
	C213.029587,218.796692 211.781693,219.235168 210.360733,219.254745 
	C205.699814,219.318939 201.034271,219.430908 196.377563,219.290619 
	C192.870041,219.184937 191.209747,220.307388 191.295151,224.141113 
	C191.537964,235.039459 190.341629,233.590881 200.461182,233.698807 
	C202.791946,233.723663 205.125198,233.644638 207.453491,233.724472 
	C209.205948,233.784561 211.560562,233.371521 211.458954,236.146164 
	C211.356461,238.945999 208.912048,238.244354 207.242386,238.294022 
	C203.416199,238.407852 199.581619,238.425308 195.755783,238.307953 
	C192.559998,238.209930 191.183701,239.553589 191.350037,242.767044 
	C191.581848,247.245377 190.934311,251.751877 191.871704,256.608337 
	C190.285645,257.000000 188.571289,257.000000 186.428467,257.000000 
z"/>
<path fill="#FFFFFF" opacity="1.000000" stroke="none" 
	d="
M109.468620,257.000000 
	C105.488312,246.367065 109.275955,241.254822 120.924171,240.600891 
	C122.905128,240.489685 126.392708,242.031952 126.415268,238.364151 
	C126.437302,234.782562 123.412521,233.565201 120.112762,233.372589 
	C117.504730,233.220383 115.235397,234.225739 113.020485,235.406204 
	C111.370995,236.285324 110.066101,235.878357 109.304337,234.260818 
	C108.535515,232.628281 109.794617,231.745728 110.975746,231.154541 
	C116.112160,228.583694 121.477112,227.604034 126.744820,230.453339 
	C131.175720,232.850037 131.393906,237.266144 131.393097,241.763062 
	C131.392227,246.563736 130.800079,251.408539 131.990173,256.583496 
	C124.645744,257.000000 117.291496,257.000000 109.468620,257.000000 
M112.444168,251.216705 
	C113.900360,254.991791 117.060608,254.965424 120.278938,254.651917 
	C123.427017,254.345215 125.368675,252.375000 126.344131,249.547577 
	C126.868355,248.028061 127.185158,246.281296 125.105446,245.334534 
	C120.917068,243.427872 114.160744,246.144089 112.444168,251.216705 
z"/>
<path fill="#FFFFFF" opacity="1.000000" stroke="none" 
	d="
M238.468277,257.000000 
	C234.941711,253.405762 232.442932,249.665634 232.511612,244.580215 
	C232.615585,236.881989 235.864319,231.820953 242.533081,229.718338 
	C249.203201,227.615280 256.270935,229.708282 259.918335,234.866653 
	C264.055511,240.717712 264.014679,248.343704 259.775238,253.898544 
	C259.073029,254.818665 258.217102,255.621429 257.216095,256.739197 
	C250.978851,257.000000 244.957703,257.000000 238.468277,257.000000 
M239.341339,251.046600 
	C242.850449,255.110077 247.358887,255.839554 252.037811,254.036102 
	C256.380432,252.362274 257.995575,248.585892 257.979828,243.980515 
	C257.963654,239.261337 255.787827,236.020493 251.586182,234.184097 
	C247.290726,232.306717 243.407333,233.327209 240.154831,236.556305 
	C236.690918,239.995331 236.324188,244.793198 239.341339,251.046600 
z"/>
<path fill="#FFFFFF" opacity="1.000000" stroke="none" 
	d="
M369.468262,257.000000 
	C368.769440,255.211609 366.799072,253.352982 369.366974,251.694138 
	C371.592224,250.256653 372.693695,252.155823 374.089844,253.140686 
	C375.797913,254.345612 377.662872,254.852509 379.731293,254.718719 
	C382.065002,254.567734 384.075714,253.810349 384.618927,251.290634 
	C385.225586,248.476608 383.135712,247.493912 381.018524,246.753311 
	C378.360199,245.823456 375.513214,245.312119 373.009827,244.085220 
	C367.857330,241.560028 367.219055,234.921890 371.572662,231.287827 
	C375.342224,228.141281 382.663910,228.048782 386.503662,231.176193 
	C387.761200,232.200394 389.447510,233.366592 388.226532,235.266006 
	C386.983704,237.199493 385.318329,237.018463 383.588379,235.551880 
	C382.599121,234.713196 381.408813,233.877396 380.182556,233.600479 
	C377.504333,232.995682 374.873016,233.784958 373.985779,236.456955 
	C373.083405,239.174637 375.645905,240.021332 377.665009,240.801041 
	C378.587860,241.157440 379.568878,241.377792 380.537354,241.599258 
	C389.769928,243.710571 391.662109,247.321808 388.104156,256.634460 
	C381.978851,257.000000 375.957703,257.000000 369.468262,257.000000 
z"/>
<path fill="#FFFFFF" opacity="1.000000" stroke="none" 
	d="
M395.468262,257.000000 
	C395.045654,255.332230 392.915466,253.694336 394.990906,251.989105 
	C397.294861,250.096130 398.573029,252.167953 400.108246,253.248627 
	C401.658539,254.339874 403.363464,254.875671 405.261597,254.786346 
	C407.732300,254.670090 410.039886,254.087784 410.652954,251.321503 
	C411.336029,248.239594 409.002869,247.323700 406.699341,246.577942 
	C404.180573,245.762512 401.504822,245.293350 399.142273,244.162094 
	C393.912048,241.657730 393.156891,235.168655 397.464355,231.392715 
	C401.323792,228.009552 408.905609,227.984268 412.736542,231.418411 
	C413.936066,232.493668 415.578278,233.714233 414.036072,235.553955 
	C412.766876,237.067963 411.207428,237.018082 409.709503,235.593994 
	C408.625488,234.563370 407.451660,233.588974 405.858612,233.459900 
	C403.128235,233.238693 400.561768,234.021988 399.801697,236.732056 
	C399.005798,239.569870 401.722229,240.131302 403.725494,240.855072 
	C404.656616,241.191483 405.628510,241.429443 406.596497,241.647217 
	C415.903595,243.740936 417.827362,247.431747 414.102112,256.636963 
	C407.978851,257.000000 401.957703,257.000000 395.468262,257.000000 
z"/>
<path fill="#FFFFFF" opacity="1.000000" stroke="none" 
	d="
M437.467590,257.000000 
	C435.920258,255.528107 433.344086,254.392838 435.518951,252.084656 
	C437.298065,250.196564 438.774384,251.665909 440.210693,252.876205 
	C441.507324,253.968811 442.976624,254.688675 444.734039,254.769379 
	C447.786224,254.909546 450.809052,254.403229 451.394470,250.987823 
	C451.953949,247.723663 448.863892,247.171982 446.513214,246.397430 
	C444.304047,245.669495 442.026886,245.127960 439.861237,244.292801 
	C436.903137,243.152069 435.533936,240.889999 435.519135,237.679947 
	C435.504883,234.594757 436.498444,232.210953 439.286255,230.624252 
	C444.131561,227.866470 450.208130,228.311356 453.697876,231.792709 
	C454.771851,232.864090 456.103180,234.027252 454.702698,235.583923 
	C453.620880,236.786392 452.136383,237.065628 450.669708,235.936325 
	C449.749084,235.227417 448.878540,234.351486 447.832703,233.926300 
	C444.762390,232.677979 441.923340,233.379028 440.811768,236.540619 
	C439.710144,239.673904 442.573792,240.317017 444.825653,240.982697 
	C445.939423,241.311951 447.089539,241.515930 448.216034,241.804733 
	C456.395264,243.901733 458.458313,248.751862 454.204468,256.674438 
	C448.645081,257.000000 443.290131,257.000000 437.467590,257.000000 
z"/>
<path fill="#FFFFFF" opacity="1.000000" stroke="none" 
	d="
M467.460632,257.000000 
	C463.995422,251.407333 465.241821,245.315170 464.970978,239.408737 
	C464.853973,236.857239 465.115906,234.267944 461.437531,234.071457 
	C460.110077,234.000549 459.381226,233.025543 459.381714,231.691803 
	C459.382172,230.506744 460.160675,229.799271 461.263123,229.806458 
	C464.517426,229.827728 464.949707,227.741577 465.040009,225.179565 
	C465.100006,223.477249 465.401642,221.732437 467.753235,221.819656 
	C470.112457,221.907135 470.319489,223.712616 470.207642,225.381699 
	C469.988983,228.645370 471.402100,229.920975 474.589508,229.734634 
	C476.067139,229.648239 477.819458,229.768631 477.894226,231.845184 
	C477.968567,233.910706 476.285431,234.268814 474.771423,234.155731 
	C470.811432,233.859909 469.953430,236.001633 470.188080,239.369965 
	C470.337708,241.517807 470.335785,243.694122 470.180878,245.841721 
	C469.806946,251.026077 469.830872,255.770721 477.213196,255.036667 
	C477.625214,254.995697 478.129120,255.878494 478.795135,256.665649 
	C475.307098,257.000000 471.614166,257.000000 467.460632,257.000000 
z"/>
<path fill="#FFFFFF" opacity="1.000000" stroke="none" 
	d="
M220.416656,257.000000 
	C219.919266,243.182938 219.825089,229.365921 219.775314,215.548752 
	C219.769272,213.872879 219.830246,211.916306 222.222046,212.006378 
	C224.720016,212.100433 224.293610,214.242706 224.301361,215.784729 
	C224.357513,226.942734 224.312180,238.101242 224.355225,249.259354 
	C224.364166,251.578461 224.607880,253.896683 224.871704,256.607666 
	C223.611115,257.000000 222.222214,257.000000 220.416656,257.000000 
z"/>
<path fill="#FFFFFF" opacity="1.000000" stroke="none" 
	d="
M423.416656,257.000000 
	C422.972809,249.525696 422.895081,242.051010 422.954010,234.577377 
	C422.968689,232.716644 422.455994,230.088531 425.364777,229.947601 
	C428.711548,229.785446 428.166321,232.610657 428.182526,234.645538 
	C428.239319,241.787537 428.174011,248.930496 428.077515,256.536560 
	C426.611115,257.000000 425.222198,257.000000 423.416656,257.000000 
z"/>
<path fill="#FFFFFF" opacity="1.000000" stroke="none" 
	d="
M253.722900,94.808197 
	C256.732269,91.277519 259.511993,88.025085 262.291748,84.772644 
	C262.047058,84.556198 261.802399,84.339752 261.557709,84.123306 
	C254.079987,92.496384 246.569839,100.840828 239.134537,109.251419 
	C232.959229,116.236732 227.192276,123.617455 219.617050,129.225464 
	C215.278671,132.437225 210.599411,134.914154 205.079468,135.280823 
	C203.596573,135.379318 201.770660,135.469208 201.439819,133.538086 
	C201.122696,131.687057 202.667389,131.079926 204.199661,130.611984 
	C212.960526,127.936447 219.593033,122.138893 225.685654,115.658829 
	C235.497849,105.222694 244.985199,94.481361 255.259247,84.481087 
	C262.618530,77.317886 270.643372,71.262932 280.913116,68.583511 
	C275.843475,67.948036 270.216553,69.868988 263.579437,74.224976 
	C253.010727,81.161278 244.849487,90.696022 236.090149,99.578049 
	C229.180420,106.584526 222.341629,113.656120 213.909149,118.893578 
	C208.404678,122.312416 202.480896,124.244759 195.904510,123.418854 
	C194.251297,123.211235 192.280106,122.909828 192.128830,120.859077 
	C191.955933,118.515182 194.207291,118.369774 195.710052,118.288429 
	C209.902283,117.520149 220.020203,109.447556 229.620468,100.051819 
	C241.270493,88.649994 252.464325,76.608749 267.261139,69.025803 
	C273.903839,65.621605 280.830627,63.627651 288.407288,65.801262 
	C293.761871,67.337410 295.476746,69.859886 294.882355,74.550117 
	C294.609985,76.699486 293.615265,77.579552 291.950867,77.956390 
	C275.170532,81.755653 267.391083,94.093079 262.936279,109.144493 
	C258.476105,124.213921 261.089203,137.771072 273.053772,148.880966 
	C276.707001,152.273254 280.007538,156.050888 283.391235,159.724228 
	C284.280487,160.689590 285.103821,161.839966 285.557312,163.054749 
	C286.329651,165.123688 288.153351,167.670258 285.595306,169.363800 
	C282.774902,171.231033 281.716858,168.186920 280.198578,166.556763 
	C274.868408,160.833817 269.184845,155.415009 264.152435,149.444916 
	C253.264389,136.528137 253.033737,121.848976 258.113678,106.617928 
	C260.010559,100.930580 262.573883,95.492943 265.876709,90.439407 
	C258.006958,98.394035 252.773438,107.904762 249.488159,118.578064 
	C247.269958,125.784691 247.944550,132.739151 251.367722,139.407578 
	C253.648422,143.850479 256.144470,148.182678 258.434814,152.620850 
	C259.884949,155.430862 261.224487,158.321182 261.216675,161.596893 
	C261.212616,163.284363 260.409851,164.481995 258.777100,164.964142 
	C257.034607,165.478683 255.623230,164.645645 255.169312,163.108398 
	C251.614975,151.070847 244.177170,140.180557 244.637833,126.943810 
	C244.836121,121.246597 246.822800,115.983246 247.571182,110.271347 
	C244.820328,115.161858 242.090500,120.064354 239.313248,124.939835 
	C235.907608,130.918533 231.816025,136.369492 226.510117,140.799637 
	C225.124985,141.956146 223.466980,142.814865 221.857224,143.664307 
	C220.530518,144.364380 219.246796,144.189774 218.418045,142.760742 
	C217.559540,141.280441 218.190994,140.124222 219.476669,139.397339 
	C231.923584,132.360291 237.566971,119.756874 244.842484,108.487823 
	C247.726395,104.020889 250.609695,99.553574 253.722900,94.808197 
z"/>
<path fill="#FFFFFF" opacity="1.000000" stroke="none" 
	d="
M297.079254,78.562408 
	C296.960510,77.844597 296.804138,77.430367 296.945160,77.192314 
	C301.168976,70.062836 299.811829,65.019043 292.563568,60.278316 
	C288.105286,57.362366 287.804108,51.037182 286.625977,45.840458 
	C283.401489,31.617432 275.635376,25.659519 261.460968,26.623535 
	C257.822418,26.870996 254.203293,27.434385 250.583862,27.917229 
	C249.133392,28.110727 247.681229,28.728136 246.240387,27.375957 
	C247.099350,25.010490 249.470123,25.238474 251.176575,24.912748 
	C255.900009,24.011152 260.674561,23.464897 265.535675,23.573553 
	C277.346649,23.837555 285.411743,29.520561 289.213989,40.677887 
	C290.392426,44.135818 291.245331,47.704197 292.407532,51.168247 
	C293.833313,55.417908 296.293182,58.754730 300.574371,60.723068 
	C305.776794,63.114983 307.208252,66.208420 304.095917,71.029373 
	C300.590057,76.459869 303.070465,80.919876 304.770233,85.646255 
	C305.662933,88.128433 306.914307,90.179085 306.065643,93.184959 
	C305.127167,96.509132 307.967926,98.943588 309.804626,101.442787 
	C314.500427,107.832344 313.986298,111.099159 306.799530,114.574913 
	C301.586609,117.096046 295.958405,118.762161 290.502777,120.775337 
	C289.193695,121.258400 287.736603,121.519623 287.173035,119.799644 
	C286.615173,118.097023 288.077515,117.451202 289.256256,116.904503 
	C294.080841,114.666824 299.323578,113.494576 304.036621,110.910797 
	C307.780457,108.858345 308.698090,106.673119 305.874146,103.067924 
	C303.189117,99.640129 301.964264,95.879303 301.837311,91.167374 
	C301.726746,87.063293 299.979858,82.553658 297.079254,78.562408 
z"/>
<path fill="#FFFFFF" opacity="1.000000" stroke="none" 
	d="
M303.215790,179.056229 
	C302.265106,181.239487 301.456451,183.064346 300.647125,184.888885 
	C299.968292,186.419312 299.262299,188.422485 297.242950,187.771362 
	C294.919678,187.022217 295.566498,184.738037 296.051300,183.046707 
	C296.782410,180.495895 297.884705,178.053741 298.768799,175.544113 
	C301.690125,167.251724 300.946838,164.779327 294.531219,158.943222 
	C290.113312,154.924347 285.369263,151.160126 282.305237,145.867310 
	C278.604218,139.474075 278.036530,133.024994 282.125549,126.550552 
	C282.739563,125.578346 283.274567,124.435364 284.825409,124.861748 
	C285.980835,126.196953 284.949829,127.289406 284.415619,128.456039 
	C280.961700,135.999542 281.727539,140.676727 287.699493,146.398087 
	C290.937561,149.500259 294.451019,152.317993 297.877899,155.219543 
	C307.152130,163.072037 308.226501,167.627151 303.215790,179.056229 
z"/>
<path fill="#FFFFFF" opacity="1.000000" stroke="none" 
	d="
M310.088074,85.958313 
	C307.816101,84.616341 307.597473,83.488075 310.206848,83.332275 
	C311.991302,83.225723 313.869293,84.025314 315.423279,81.516701 
	C312.685150,81.279968 309.801300,83.036446 307.309235,80.309250 
	C318.002411,78.717003 316.305634,69.978523 317.519989,63.069180 
	C318.490936,57.544777 318.782959,51.904236 319.552368,46.339577 
	C319.835632,44.290764 320.547333,42.259907 323.037781,40.914165 
	C323.824341,44.654976 320.813965,47.644672 322.385559,50.805962 
	C324.376495,48.335022 323.652863,43.680565 329.145477,42.559319 
	C323.173492,54.312466 324.331543,66.974922 320.306671,78.484154 
	C318.205963,84.491173 315.938049,86.309616 310.088074,85.958313 
z"/>
<path fill="#FFFFFF" opacity="1.000000" stroke="none" 
	d="
M223.879318,34.719311 
	C228.608994,32.752827 232.897369,30.563620 238.079636,30.871719 
	C237.399780,33.083221 235.714218,32.954945 234.393784,33.368649 
	C223.106705,36.905010 212.878769,42.360310 204.347122,50.609013 
	C199.375244,55.415989 194.957977,60.682678 197.423355,68.508850 
	C197.672913,69.301094 197.372681,70.156265 196.254532,70.917603 
	C193.551407,70.936157 193.267960,68.507851 192.881989,66.542015 
	C191.829971,61.183556 194.004181,56.836067 197.415054,52.852741 
	C204.537872,44.534470 213.744949,39.298054 223.879318,34.719311 
z"/>
<path fill="#FFFFFF" opacity="1.000000" stroke="none" 
	d="
M211.435593,72.376694 
	C212.432877,74.196625 213.282440,75.940033 211.374100,77.039833 
	C209.248535,78.264816 208.043091,76.514175 207.009308,74.957146 
	C203.470413,69.627098 203.831512,64.008942 207.095200,59.000942 
	C212.737213,50.343483 221.163635,45.133644 230.843292,41.882977 
	C231.545029,41.647312 232.394684,41.852093 233.295776,41.852093 
	C233.047913,44.656315 230.831955,44.676868 229.357910,45.387260 
	C223.148834,48.379627 217.568008,52.167492 213.224472,57.593384 
	C208.800644,63.119568 208.306183,66.896324 211.435593,72.376694 
z"/>
<path fill="#FFFFFF" opacity="1.000000" stroke="none" 
	d="
M423.092651,220.559448 
	C422.498108,218.232147 422.765167,216.551315 424.981140,215.930496 
	C426.410950,215.529938 427.518799,216.220398 428.304840,217.395065 
	C429.163788,218.678574 428.843079,219.918472 427.885681,220.958344 
	C426.383850,222.589493 424.806213,222.558655 423.092651,220.559448 
z"/>
</svg>